<svg xmlns="http://www.w3.org/2000/svg" width="18" height="19" viewBox="0 0 18 19" fill="none">
  <g clip-path="url(#clip0_3_56)">
    <path fill-rule="evenodd" clip-rule="evenodd" d="M8.99999 2C11.8995 2 14.25 4.35051 14.25 7.24999C14.25 8.12668 14.0357 8.95271 13.6553 9.67957L8.99999 17.75L4.45253 9.87532C4.00499 9.10251 3.75 8.20638 3.75 7.24999C3.75 4.35051 6.10051 2 8.99999 2ZM8.99999 3.50001C6.92893 3.50001 5.25001 5.17893 5.25001 7.24999C5.25001 7.84554 5.3874 8.41697 5.64738 8.93281L5.77338 9.16295L8.99999 14.75L12.2494 9.12357C12.5761 8.55945 12.75 7.92 12.75 7.24999C12.75 5.17893 11.071 3.50001 8.99995 3.50001M8.99999 4.99999C10.2427 4.99999 11.25 6.00736 11.25 7.24999C11.25 8.49262 10.2427 9.49999 8.99999 9.49999C7.75736 9.49999 6.74999 8.49266 6.74999 7.24999C6.74999 6.00736 7.75736 4.99999 8.99999 4.99999ZM8.99999 6.5C8.58578 6.5 8.25 6.83578 8.25 7.24999C8.25 7.6642 8.58578 8.00001 8.99999 8.00001C9.4142 8.00001 9.75001 7.6642 9.75001 7.24999C9.75001 6.83578 9.4142 6.5 8.99999 6.5Z" fill="white"/>
    <path d="M8.99999 3.50001C6.92893 3.50001 5.25001 5.17893 5.25001 7.24999C5.25001 7.84554 5.3874 8.41697 5.64738 8.93281L5.77338 9.16295L8.99999 14.75L12.2494 9.12357C12.5761 8.55945 12.75 7.92 12.75 7.24999C12.75 5.17893 11.071 3.50001 8.99995 3.50001M8.99999 2C11.8995 2 14.25 4.35051 14.25 7.24999C14.25 8.12668 14.0357 8.95271 13.6553 9.67957L8.99999 17.75L4.45253 9.87532C4.00499 9.10251 3.75 8.20638 3.75 7.24999C3.75 4.35051 6.10051 2 8.99999 2ZM8.99999 4.99999C10.2427 4.99999 11.25 6.00736 11.25 7.24999C11.25 8.49262 10.2427 9.49999 8.99999 9.49999C7.75736 9.49999 6.74999 8.49266 6.74999 7.24999C6.74999 6.00736 7.75736 4.99999 8.99999 4.99999ZM8.99999 6.5C8.58578 6.5 8.25 6.83578 8.25 7.24999C8.25 7.6642 8.58578 8.00001 8.99999 8.00001C9.4142 8.00001 9.75001 7.6642 9.75001 7.24999C9.75001 6.83578 9.4142 6.5 8.99999 6.5Z" stroke="#0101A7" stroke-width="0.5"/>
  </g>
  <defs>
    <clipPath id="clip0_3_56">
      <rect width="18" height="18" fill="white" transform="translate(0 0.5)"/>
    </clipPath>
  </defs>
</svg>